<?xml version="1.0" standalone="no"?>
<!DOCTYPE svg PUBLIC "-//W3C//DTD SVG 20010904//EN"
 "http://www.w3.org/TR/2001/REC-SVG-20010904/DTD/svg10.dtd">
<svg version="1.0" xmlns="http://www.w3.org/2000/svg"
 width="405.000000pt" height="405.000000pt" viewBox="0 0 405.000000 405.000000"
 preserveAspectRatio="xMidYMid meet">
<metadata>
Created by potrace 1.14, written by Peter Selinger 2001-2017
</metadata>
<g transform="translate(0.000000,405.000000) scale(0.100000,-0.100000)"
fill="#000000" stroke="none">
<path d="M0 2025 l0 -2025 2025 0 2025 0 0 2025 0 2025 -2025 0 -2025 0 0
-2025z m2370 1960 c529 -90 957 -348 1283 -773 380 -495 492 -1221 285 -1852
-158 -484 -545 -921 -1018 -1149 -203 -98 -401 -154 -644 -182 -128 -15 -459
-6 -586 16 -440 74 -801 268 -1120 601 -307 321 -475 681 -526 1129 -23 202
-12 459 26 636 12 52 25 113 30 137 20 91 73 233 135 359 193 391 462 672 840
878 201 110 439 183 695 215 113 13 488 4 600 -15z"/>
<path d="M1800 3806 c-527 -69 -988 -357 -1274 -798 -123 -189 -220 -428 -267
-658 -21 -103 -24 -141 -24 -360 0 -216 3 -258 23 -359 55 -272 158 -498 331
-726 62 -81 221 -245 306 -315 596 -489 1510 -534 2150 -106 398 267 677 670
773 1116 71 327 52 699 -50 1005 -90 270 -240 500 -466 716 -269 257 -563 405
-933 469 -160 27 -424 35 -569 16z m733 -500 c21 -98 36 -180 35 -181 -3 -2
-487 -103 -523 -109 -11 -2 -30 -4 -42 -5 -12 0 -29 -8 -37 -17 -9 -8 -16 -11
-16 -5 0 6 -4 11 -9 11 -5 0 -8 -16 -7 -35 2 -20 -1 -38 -6 -42 -6 -3 -5 -9 3
-14 11 -7 11 -9 1 -9 -10 0 -10 -5 -1 -21 9 -17 8 -20 -2 -14 -9 6 -11 2 -7
-13 4 -14 1 -25 -9 -30 -13 -8 -9 -39 30 -231 24 -122 47 -224 51 -228 3 -3
139 20 302 52 163 32 312 58 332 59 l36 1 37 -178 c26 -126 34 -180 25 -183
-11 -4 -626 -131 -681 -140 -72 -12 -93 -24 -87 -47 5 -20 4 -21 -14 -7 -10 8
-16 10 -12 6 4 -5 3 -15 -3 -23 -9 -9 -8 -13 0 -13 6 0 11 -8 11 -18 0 -10 5
-23 12 -30 9 -9 9 -12 -1 -12 -7 0 -9 -4 -6 -10 3 -5 0 -7 -8 -4 -23 8 -30
-13 -12 -39 8 -13 13 -26 10 -29 -3 -3 -1 -18 5 -34 9 -25 8 -27 -4 -11 -12
15 -14 11 -15 -35 0 -28 4 -57 10 -65 6 -7 9 -20 5 -28 -3 -9 0 -15 9 -15 9 0
15 -10 15 -25 0 -14 4 -25 9 -25 10 0 9 -19 -2 -37 -5 -8 -3 -13 7 -13 15 0
17 -35 3 -57 -4 -6 -3 -14 2 -18 6 -3 7 -13 4 -22 -4 -10 -2 -14 5 -9 7 4 8
-2 3 -21 -6 -20 10 -118 51 -331 33 -167 58 -306 55 -308 -8 -9 -370 -75 -382
-70 -7 2 -17 31 -23 63 -6 32 -101 506 -210 1053 -302 1510 -298 1490 -285
1498 20 12 1255 251 1283 248 10 -1 25 -50 53 -180z m-473 -353 c0 4 6 2 14
-5 7 -7 11 -19 8 -27 -3 -9 -1 -12 6 -7 8 4 12 0 12 -11 0 -14 2 -15 9 -4 5 8
7 21 4 30 -3 11 -2 12 4 4 5 -7 8 -25 7 -40 -1 -23 -6 -29 -35 -34 -18 -4 -40
-3 -49 1 -11 7 -12 9 -1 10 9 0 12 8 9 25 -3 13 -1 22 3 19 5 -3 9 2 9 10 0 9
-4 16 -10 16 -5 0 -10 8 -10 18 0 14 2 15 10 2 5 -8 10 -11 10 -7z m-65 -14
c3 -4 0 -11 -6 -15 -8 -5 -9 -3 -4 6 6 10 3 12 -12 8 -12 -3 -20 0 -20 7 0 13
34 9 42 -6z m-30 -58 c3 -5 2 -12 -3 -15 -5 -3 -9 1 -9 9 0 17 3 19 12 6z m42
-26 c0 -11 -4 -12 -14 -4 -7 6 -13 13 -13 15 0 2 6 4 13 4 8 0 14 -7 14 -15z
m-43 -970 c3 -8 1 -15 -4 -15 -6 0 -10 7 -10 15 0 8 2 15 4 15 2 0 6 -7 10
-15z"/>
</g>
</svg>
